<svg xmlns="http://www.w3.org/2000/svg" xmlns:xlink="http://www.w3.org/1999/xlink" viewBox="0 0 1226.73 191.51"><defs><style>.cls-1{fill:url(#linear-gradient);}.cls-2{fill:url(#linear-gradient-2);}</style><linearGradient id="linear-gradient" x1="670.63" y1="95.89" x2="1073.99" y2="95.89" gradientUnits="userSpaceOnUse"><stop offset="0" stop-color="#e79eaf"/><stop offset="1" stop-color="#ffc1cf"/></linearGradient><linearGradient id="linear-gradient-2" x1="1106.43" y1="396.17" x2="98.44" y2="-162.57" gradientUnits="userSpaceOnUse"><stop offset="0" stop-color="#a8c8ff"/><stop offset="1" stop-color="#5695ff"/></linearGradient></defs><g id="Layer_2" data-name="Layer 2"><g id="Layer_2-2" data-name="Layer 2"><path class="cls-1" d="M766.16.27A95.53,95.53,0,1,0,861.69,95.8,95.53,95.53,0,0,0,766.16.27Zm0,181.06A85.53,85.53,0,1,1,851.69,95.8,85.63,85.63,0,0,1,766.16,181.33ZM978.46.45A95.53,95.53,0,1,0,1074,96,95.53,95.53,0,0,0,978.46.45Zm0,181.06A85.53,85.53,0,1,1,1064,96,85.63,85.63,0,0,1,978.46,181.51Z"/><path class="cls-2" d="M134.62,33.74a45.51,45.51,0,0,0-12-17.15,47.18,47.18,0,0,0-18.87-10c-7.57-2.16-18.69-3.26-33-3.26h-50c-7.49,0-12.89,1.5-16,4.44S0,15.79,0,23.18V171.55c0,6,1.17,10.6,3.51,13.8a10.73,10.73,0,0,0,.84,1.05,13.34,13.34,0,0,0,6.11,3.94,17.08,17.08,0,0,0,5.1.72,14.1,14.1,0,0,0,11-4.74c3-3.25,4.46-8.3,4.46-15V112.8H71.37q3.6,0,7-.19c19.06-1,33.74-5.69,43.73-14,11.23-9.4,16.69-23,16.69-41.51A62,62,0,0,0,134.62,33.74Zm-33,43.68c-3.74,5.06-9.17,8.72-16.14,10.9a64.14,64.14,0,0,1-9.26,2.06c-2.2.33-4.52.57-7,.74s-5.23.27-8,.27H31V24.56H61.26q3.46,0,6.63.15c15,.69,25.1,3.84,30.75,9.58l.07.08c5.68,6.08,8.56,14,8.56,23.47C107.27,65.77,105.37,72.36,101.63,77.42Zm184.8,89.87c-2.59-2.36-6.57-3.55-11.82-3.55h-83V19.63c0-6.88-1.47-11.95-4.37-15.06S180.62,0,175.87,0a14,14,0,0,0-11,4.58c-2.85,3.17-4.29,8.23-4.29,15.05V167.88c0,7.27,1.49,12.47,4.43,15.44s8.12,4.45,15.47,4.45h94.14c5.36,0,9.38-1.14,11.93-3.4a10.64,10.64,0,0,0,3.64-8.48A11,11,0,0,0,286.43,167.29Zm184-9.2L420.09,33.79c-2.32-6.09-4.27-11.07-5.81-14.8A51.62,51.62,0,0,0,409,9.3a22.19,22.19,0,0,0-7.47-6.73C398.56.86,394.65,0,390,0a23.12,23.12,0,0,0-11.49,2.57A21.35,21.35,0,0,0,371,9.39a60.93,60.93,0,0,0-5.9,11.77l-.12.29q-2.88,7.36-4.94,12.65l-49.25,125c-2,4.87-3.39,8.7-4.23,11.38a23.39,23.39,0,0,0-1.13,7c0,3.44,1.44,6.49,4.41,9.32a14.29,14.29,0,0,0,10.24,4.28c4.48,0,7.52-1.14,9.27-3.46,1.58-2.1,4.36-7,8.64-18.49l10.16-27.29H432l10.15,26.69c1.2,2.91,2.66,6.33,4.34,10.17a37.64,37.64,0,0,0,4.27,7.79,12.06,12.06,0,0,0,4.17,3.37,13.56,13.56,0,0,0,6.09,1.22,14.41,14.41,0,0,0,10.63-4.41c3-3,4.4-6.06,4.4-9.45C476,174.63,475.05,169.23,470.41,158.09Zm-114.9-37.55,34.14-95.19,34.78,95.19ZM644.41,4.21C641.94,1.38,638.59,0,634.16,0c-4.24,0-7.48,1.37-9.89,4.19s-3.83,7.71-3.83,14.13V146.13L538.08,21.51q-3.14-5-6.09-9.56a43.07,43.07,0,0,0-5.27-6.85,17.69,17.69,0,0,0-5.36-3.75A17.66,17.66,0,0,0,514,0a18.4,18.4,0,0,0-10.3,3.1A17.13,17.13,0,0,0,497,10.9c-1.2,3.1-1.81,7.59-1.81,13.33v148.5c0,6.24,1.35,10.94,4,14s5.9,4.35,10.25,4.35a13,13,0,0,0,10.16-4.34c2.71-3,4.09-7.69,4.09-14V46.49l80.43,123.33c2.07,3,4.18,6,6.26,8.92a42.44,42.44,0,0,0,6.24,7,20.2,20.2,0,0,0,6.56,4,24,24,0,0,0,8.11,1.28c7.92,0,17-2.43,17-21.35V18.32C648.28,11.91,647,7.16,644.41,4.21ZM1223,167.29c-2.59-2.36-6.57-3.55-11.81-3.55h-83.05V19.63c0-6.88-1.47-11.95-4.37-15.06S1117.17,0,1112.42,0a14,14,0,0,0-11,4.58c-2.84,3.17-4.29,8.23-4.29,15.05V167.88c0,7.27,1.49,12.47,4.43,15.44s8.13,4.45,15.47,4.45h94.15c5.35,0,9.37-1.14,11.93-3.4a10.67,10.67,0,0,0,3.63-8.48A11,11,0,0,0,1223,167.29Z"/></g></g></svg>