<svg width="25" height="23" viewBox="0 0 25 23" fill="none" xmlns="http://www.w3.org/2000/svg">
<path d="M24.8049 9.3714C24.8911 9.29053 24.9521 9.18801 24.981 9.07543C25.01 8.96286 25.0057 8.84471 24.9687 8.73435C24.9317 8.62399 24.8635 8.52581 24.7717 8.45092C24.6799 8.37603 24.5683 8.32741 24.4493 8.31056L16.9283 7.25709C16.8253 7.2423 16.7275 7.20371 16.6433 7.1446C16.5591 7.0855 16.4909 7.00762 16.4446 6.91762L13.0799 0.338509C13.0258 0.236598 12.9437 0.151065 12.8425 0.0913358C12.7413 0.0316064 12.625 0 12.5063 0C12.3877 0 12.2714 0.0316064 12.1702 0.0913358C12.069 0.151065 11.9868 0.236598 11.9328 0.338509L8.56037 6.91762C8.51432 7.00781 8.44623 7.08585 8.36196 7.14499C8.2777 7.20413 8.17979 7.2426 8.07668 7.25709L0.555662 8.31056C0.436271 8.32656 0.323926 8.37455 0.231394 8.4491C0.138862 8.52364 0.0698547 8.62174 0.032216 8.73225C-0.00542272 8.84276 -0.0101836 8.96123 0.0184744 9.07422C0.0471324 9.18721 0.10806 9.29017 0.194332 9.3714L5.64105 14.4912C5.71754 14.5612 5.77499 14.6483 5.80833 14.7448C5.84167 14.8414 5.84988 14.9443 5.83223 15.0446L4.5475 22.2732C4.52677 22.3874 4.53967 22.505 4.58472 22.6125C4.62977 22.72 4.70517 22.8132 4.80235 22.8814C4.89954 22.9496 5.0146 22.9902 5.13447 22.9984C5.25435 23.0067 5.37422 22.9823 5.48046 22.9281L12.2081 19.515C12.3005 19.4677 12.4036 19.443 12.5082 19.443C12.6123 19.443 12.7147 19.4677 12.8065 19.515L19.5341 22.9281C19.6405 22.9821 19.7604 23.0063 19.8802 22.9979C20.0001 22.9896 20.1151 22.9491 20.2124 22.8809C20.3096 22.8128 20.3852 22.7198 20.4305 22.6124C20.4759 22.505 20.4892 22.3875 20.469 22.2732L19.1785 15.0409C19.1607 14.9406 19.1688 14.8376 19.2022 14.7411C19.2355 14.6445 19.2931 14.5574 19.3697 14.4875L24.8049 9.3714ZM13.6916 17.8785C13.3251 17.6919 12.9169 17.5943 12.5025 17.5943C12.0881 17.5943 11.6799 17.6919 11.3134 17.8785L6.86078 20.1367L7.70962 15.3527C7.78016 14.9588 7.75018 14.5541 7.62226 14.1738C7.49435 13.7935 7.27236 13.4491 6.97549 13.1702L3.37366 9.78098L8.34434 9.08175C8.75467 9.0265 9.1449 8.87567 9.48132 8.64231C9.81774 8.40894 10.0902 8.10005 10.2753 7.74231L12.5025 3.38822L14.724 7.74231C14.9073 8.10107 15.1784 8.41136 15.5138 8.64634C15.8492 8.88132 16.2389 9.03393 16.6492 9.09097L21.6199 9.79021L18.0276 13.1702C17.7311 13.4493 17.5094 13.7939 17.3815 14.1741C17.2537 14.5543 17.2234 14.9588 17.2935 15.3527L18.1442 20.1367L13.6916 17.8785Z" fill="#FFF"/>
<defs>
</defs>
</svg>