<svg width="18" height="18" viewBox="0 0 18 18" fill="none" xmlns="http://www.w3.org/2000/svg">
<path d="M14.7513 10.2864H9.06897C8.97855 10.2864 8.89183 10.2505 8.82789 10.1867C8.76395 10.1229 8.72803 10.0363 8.72803 9.94608C8.72803 9.85583 8.76395 9.76927 8.82789 9.70545C8.89183 9.64163 8.97855 9.60577 9.06897 9.60577H14.7513C14.8418 9.60577 14.9285 9.64163 14.9924 9.70545C15.0564 9.76927 15.0923 9.85583 15.0923 9.94608C15.0923 10.0363 15.0564 10.1229 14.9924 10.1867C14.9285 10.2505 14.8418 10.2864 14.7513 10.2864Z" fill="white"/>
<path d="M15.7742 9.94607H15.3196C15.3196 9.79565 15.2597 9.65138 15.1531 9.54502C15.0466 9.43865 14.902 9.37889 14.7513 9.37889H9.06897V3.25336C10.8467 3.25516 12.5512 3.96086 13.8083 5.2156C15.0653 6.47034 15.7724 8.17161 15.7742 9.94607Z" fill="white"/>
<path d="M9.68723 1.13436H12.5921C12.7428 1.13436 12.8873 1.0746 12.9939 0.968235C13.1004 0.861869 13.1603 0.717605 13.1603 0.567179C13.1603 0.416754 13.1004 0.27249 12.9939 0.166123C12.8873 0.0597562 12.7428 0 12.5921 0H5.43227C5.28156 0 5.13703 0.0597562 5.03047 0.166123C4.9239 0.27249 4.86403 0.416754 4.86403 0.567179C4.86403 0.717605 4.9239 0.861869 5.03047 0.968235C5.13703 1.0746 5.28156 1.13436 5.43227 1.13436H8.3371V1.92387C6.26226 2.09769 4.33498 3.06512 2.958 4.62401C1.58101 6.18289 0.860848 8.21262 0.947998 10.2891C1.03515 12.3655 1.92286 14.328 3.42565 15.7665C4.92844 17.2049 6.93003 18.0081 9.01216 18.0081C11.0943 18.0081 13.0959 17.2049 14.5987 15.7665C16.1015 14.328 16.9892 12.3655 17.0763 10.2891C17.1635 8.21262 16.4433 6.18289 15.0663 4.62401C13.6893 3.06512 11.7621 2.09769 9.68723 1.92387V1.13436ZM9.06899 16.8656C7.69787 16.8656 6.35754 16.4598 5.2175 15.6995C4.07746 14.9391 3.1889 13.8585 2.6642 12.5941C2.1395 11.3297 2.00221 9.93838 2.2697 8.59611C2.53719 7.25384 3.19745 6.02089 4.16697 5.05317C5.1365 4.08545 6.37175 3.42642 7.71652 3.15943C9.0613 2.89243 10.4552 3.02946 11.7219 3.55319C12.9887 4.07692 14.0714 4.96382 14.8331 6.10174C15.5949 7.23966 16.0015 8.57749 16.0015 9.94605C15.9997 11.7807 15.2687 13.5397 13.969 14.837C12.6693 16.1342 10.907 16.8638 9.06899 16.8656Z" fill="white"/>
</svg>