<svg width="32" height="18" viewBox="0 0 32 18" fill="none" xmlns="http://www.w3.org/2000/svg">
<path d="M1.6 0.61396V17.395C1.57293 17.5792 1.47431 17.7458 1.32501 17.8596C1.17571 17.9733 0.987435 18.0253 0.8 18.0045C0.612565 18.0253 0.424286 17.9733 0.274986 17.8596C0.125685 17.7458 0.0270708 17.5792 0 17.395V0.61396C0.0270708 0.429754 0.125685 0.263162 0.274986 0.149418C0.424286 0.0356749 0.612565 -0.0163001 0.8 0.00448623C0.987435 -0.0163001 1.17571 0.0356749 1.32501 0.149418C1.47431 0.263162 1.57293 0.429754 1.6 0.61396Z" fill="white"/>
<path d="M32 0.613972V17.395C31.9547 17.5705 31.8514 17.726 31.7066 17.8371C31.5617 17.9481 31.3835 18.0084 31.2 18.0084C31.0166 18.0084 30.8383 17.9481 30.6935 17.8371C30.5486 17.726 30.4454 17.5705 30.4 17.395V0.613972C30.4454 0.438543 30.5486 0.28301 30.6935 0.17193C30.8383 0.0608496 31.0166 0.000549316 31.2 0.000549316C31.3835 0.000549316 31.5617 0.0608496 31.7066 0.17193C31.8514 0.28301 31.9547 0.438543 32 0.613972Z" fill="white"/>
<path d="M27.84 8.91926C27.8496 8.97571 27.8496 9.03334 27.84 9.08979C27.8419 9.11396 27.8419 9.13825 27.84 9.16242C27.8428 9.17915 27.8428 9.19622 27.84 9.21294C27.831 9.26424 27.8125 9.31347 27.7856 9.35821C27.7856 9.37716 27.7664 9.39295 27.76 9.41189C27.7458 9.43726 27.7298 9.46154 27.712 9.48452C27.6635 9.54179 27.61 9.59464 27.552 9.64242L27.3376 9.80031L22.4 13.4256C22.2302 13.5512 22.0169 13.6051 21.8068 13.5755C21.5968 13.5459 21.4073 13.4352 21.28 13.2677C21.1527 13.1002 21.098 12.8896 21.128 12.6823C21.158 12.4751 21.2702 12.288 21.44 12.1624L24.64 9.794H7.35995L10.56 12.1624C10.644 12.2246 10.7148 12.3026 10.7683 12.3918C10.8219 12.481 10.8571 12.5797 10.8719 12.6823C10.8868 12.785 10.881 12.8895 10.8549 12.9899C10.8289 13.0904 10.783 13.1847 10.72 13.2677C10.5927 13.4352 10.4031 13.5459 10.1931 13.5755C9.98305 13.6051 9.76969 13.5512 9.59995 13.4256L4.52796 9.67084L4.47995 9.6361C4.39521 9.57429 4.32438 9.49579 4.27196 9.40558C4.26112 9.38835 4.2515 9.37042 4.24316 9.35189C4.21905 9.30586 4.20078 9.25707 4.18876 9.20663C4.18583 9.18991 4.18583 9.17282 4.18876 9.1561C4.18565 9.1341 4.18565 9.11179 4.18876 9.08979C4.18236 9.03312 4.18236 8.97593 4.18876 8.91926C4.18565 8.89726 4.18565 8.87494 4.18876 8.85295C4.18583 8.83623 4.18583 8.81914 4.18876 8.80242C4.20078 8.75198 4.21905 8.70319 4.24316 8.65716C4.2515 8.63863 4.26112 8.62069 4.27196 8.60347C4.28493 8.57744 4.30105 8.55305 4.31995 8.53084C4.36679 8.47217 4.4205 8.41917 4.47995 8.37295L4.69436 8.21505L9.59995 4.58347C9.684 4.52127 9.77964 4.47601 9.88141 4.45028C9.98318 4.42455 10.0891 4.41885 10.1931 4.43351C10.2971 4.44817 10.3972 4.48291 10.4875 4.53573C10.5779 4.58855 10.6569 4.65843 10.72 4.74137C10.783 4.82431 10.8289 4.91869 10.8549 5.01912C10.881 5.11955 10.8868 5.22407 10.8719 5.3267C10.8571 5.42933 10.8219 5.52807 10.7683 5.61728C10.7148 5.70649 10.644 5.78443 10.56 5.84663L7.35995 8.21505H24.64L21.44 5.84663C21.3556 5.78469 21.2844 5.70687 21.2307 5.61767C21.1769 5.52846 21.1415 5.42964 21.1267 5.32689C21.1118 5.22414 21.1177 5.1195 21.144 5.019C21.1703 4.91851 21.2165 4.82415 21.28 4.74137C21.3536 4.64239 21.45 4.56213 21.5613 4.50722C21.6726 4.45231 21.7955 4.42432 21.92 4.42558C22.0931 4.42558 22.2615 4.48098 22.4 4.58347L27.472 8.33821L27.5232 8.37295C27.6071 8.43559 27.6778 8.51392 27.7312 8.60347C27.7312 8.62242 27.7504 8.63821 27.7568 8.65716C27.7837 8.70189 27.8022 8.75113 27.8112 8.80242C27.8232 8.81543 27.833 8.83038 27.84 8.84663C27.8419 8.8708 27.8419 8.89509 27.84 8.91926Z" fill="white"/>
</svg>