<svg width="55" height="25" viewBox="0 0 55 25" fill="none" xmlns="http://www.w3.org/2000/svg">
<path d="M11.8087 6.43407C11.2356 5.54271 10.4472 4.8094 9.51607 4.30152C8.58492 3.79364 7.54082 3.52747 6.4797 3.52747C5.41858 3.52747 4.37448 3.79364 3.44333 4.30152C2.51218 4.8094 1.72384 5.54271 1.15075 6.43407C0.389003 7.64306 -0.0102267 9.04436 0.000199102 10.4725C0.000803609 10.9749 0.049605 11.4761 0.145935 11.9692C0.168946 12.1032 0.199627 12.2333 0.234144 12.352C0.361839 12.7945 0.531347 13.2239 0.740385 13.6343L6.28602 24.8003C6.31539 24.8601 6.36097 24.9105 6.41758 24.9457C6.47418 24.9809 6.53955 24.9996 6.60626 24.9996C6.67296 24.9996 6.73833 24.9809 6.79494 24.9457C6.85155 24.9105 6.89712 24.8601 6.92649 24.8003L12.242 13.6267C12.4442 13.2207 12.6073 12.7965 12.7291 12.3597C12.7649 12.2346 12.7956 12.107 12.8211 11.9769C13.2054 10.068 12.8431 8.08476 11.8087 6.43407ZM6.63886 13.9138C5.91826 13.9138 5.21385 13.7005 4.61469 13.3009C4.01554 12.9013 3.54855 12.3334 3.27279 11.6689C2.99703 11.0044 2.92488 10.2732 3.06546 9.56783C3.20605 8.86242 3.55305 8.21446 4.06258 7.70588C4.57212 7.19731 5.22131 6.85097 5.92807 6.71065C6.63482 6.57034 7.36738 6.64235 8.03313 6.91759C8.69887 7.19283 9.26789 7.65893 9.66823 8.25695C10.0686 8.85497 10.2823 9.55805 10.2823 10.2773C10.2823 11.2417 9.8984 12.1667 9.21513 12.8487C8.53186 13.5307 7.60515 13.9138 6.63886 13.9138Z" fill="white"/>
<path d="M53.842 2.90092C53.269 2.01119 52.4814 1.27932 51.5513 0.772467C50.6212 0.265612 49.5785 0 48.5188 0C47.4591 0 46.4164 0.265612 45.4863 0.772467C44.5563 1.27932 43.7686 2.01119 43.1956 2.90092C42.4323 4.1092 42.0329 5.51097 42.0451 6.93935C42.0454 7.43652 42.0929 7.93253 42.187 8.42075C42.21 8.55473 42.2407 8.68487 42.2713 8.80354C42.402 9.24557 42.5727 9.6748 42.7814 10.0859L48.3232 21.2672C48.3526 21.327 48.3982 21.3773 48.4548 21.4125C48.5114 21.4478 48.5768 21.4664 48.6435 21.4664C48.7102 21.4664 48.7755 21.4478 48.8321 21.4125C48.8887 21.3773 48.9343 21.327 48.9637 21.2672L54.2754 10.0974C54.4804 9.69219 54.6449 9.26779 54.7663 8.83033C54.797 8.70529 54.8276 8.57769 54.8583 8.44754C55.2389 6.53695 54.8755 4.55341 53.842 2.90092ZM48.6761 10.3806C47.9555 10.3806 47.251 10.1674 46.6519 9.76777C46.0527 9.36819 45.5858 8.80024 45.31 8.13576C45.0342 7.47128 44.9621 6.7401 45.1027 6.03468C45.2432 5.32927 45.5902 4.68131 46.0998 4.17273C46.6093 3.66416 47.2585 3.31782 47.9653 3.1775C48.672 3.03719 49.4046 3.1092 50.0703 3.38444C50.7361 3.65968 51.3051 4.12578 51.7054 4.7238C52.1058 5.32182 52.3195 6.0249 52.3195 6.74413C52.3195 7.70859 51.9356 8.63355 51.2523 9.31553C50.5691 9.9975 49.6423 10.3806 48.6761 10.3806Z" fill="white"/>
<path d="M11.8164 24.2491C11.6433 24.2456 11.4765 24.1838 11.3431 24.0738C11.2097 23.9637 11.1175 23.8119 11.0815 23.6429C11.0455 23.4739 11.0678 23.2977 11.1448 23.143C11.2219 22.9882 11.3491 22.8641 11.5058 22.7907C12.2728 22.4079 13.0628 22.0787 13.8068 21.7609C13.9945 21.6823 14.2058 21.6812 14.3942 21.758C14.5827 21.8348 14.7328 21.9832 14.8117 22.1705C14.8905 22.3578 14.8915 22.5687 14.8146 22.7568C14.7376 22.9449 14.589 23.0948 14.4013 23.1734C13.6765 23.4797 12.9209 23.8165 12.1539 24.1764C12.0484 24.2259 11.933 24.2508 11.8164 24.2491Z" fill="white"/>
<path d="M38.4861 24.4979H38.3518C36.9121 24.2103 35.5078 23.7675 34.1638 23.1773C34.0709 23.1383 33.9866 23.0815 33.9157 23.01C33.8448 22.9385 33.7887 22.8538 33.7506 22.7606C33.7125 22.6675 33.6931 22.5678 33.6936 22.4672C33.6941 22.3666 33.7145 22.2671 33.7535 22.1744C33.7925 22.0816 33.8495 21.9975 33.9211 21.9267C33.9927 21.8559 34.0776 21.7999 34.1709 21.7619C34.2642 21.7238 34.3641 21.7045 34.4649 21.705C34.5657 21.7055 34.6654 21.7258 34.7583 21.7648C36.0016 22.3117 37.3003 22.7237 38.6318 22.9935C38.8352 23.0118 39.0231 23.11 39.154 23.2665C39.2849 23.423 39.3481 23.625 39.3298 23.828C39.3115 24.0311 39.2131 24.2185 39.0563 24.3492C38.8995 24.4798 38.6972 24.543 38.4937 24.5247L38.4861 24.4979ZM18.0677 21.7686C17.8919 21.7588 17.7248 21.689 17.5945 21.5708C17.4642 21.4527 17.3786 21.2933 17.352 21.1196C17.3255 20.9459 17.3596 20.7683 17.4488 20.6167C17.5379 20.4652 17.6765 20.3488 17.8414 20.2872C19.2281 19.8509 20.6461 19.5207 22.0831 19.2996C22.1838 19.285 22.2864 19.2904 22.3851 19.3154C22.4837 19.3404 22.5765 19.3846 22.658 19.4453C22.7396 19.5061 22.8084 19.5824 22.8604 19.6697C22.9124 19.757 22.9467 19.8536 22.9613 19.9542C22.976 20.0547 22.9706 20.1571 22.9455 20.2556C22.9205 20.3541 22.8762 20.4466 22.8153 20.528C22.7544 20.6094 22.6781 20.6781 22.5906 20.73C22.5031 20.782 22.4063 20.8162 22.3055 20.8308C20.9478 21.0399 19.608 21.3522 18.2978 21.7648C18.2217 21.7771 18.1442 21.7784 18.0677 21.7686ZM30.5396 21.6078C30.452 21.6073 30.3651 21.5918 30.2827 21.5619C29.0164 21.0966 27.695 20.7968 26.3516 20.67C26.1482 20.6517 25.9604 20.5535 25.8295 20.397C25.6986 20.2405 25.6353 20.0386 25.6536 19.8355C25.6719 19.6325 25.7703 19.445 25.9271 19.3144C26.0839 19.1837 26.2863 19.1206 26.4897 19.1388C27.9614 19.2805 29.4088 19.6098 30.7966 20.1188C30.9685 20.1782 31.1137 20.2966 31.2062 20.4529C31.2987 20.6092 31.3326 20.7933 31.3017 20.9722C31.2708 21.1512 31.1772 21.3133 31.0376 21.4297C30.898 21.5462 30.7215 21.6093 30.5396 21.6078Z" fill="white"/>
<path d="M42.7239 24.6587C42.5205 24.6688 42.3214 24.5979 42.1703 24.4615C42.0193 24.3251 41.9287 24.1344 41.9186 23.9314C41.9084 23.7283 41.9794 23.5296 42.1161 23.3788C42.2528 23.2281 42.4438 23.1377 42.6472 23.1275C43.4422 23.0509 44.2313 22.923 45.0097 22.7447C45.1079 22.7221 45.2096 22.719 45.309 22.7356C45.4084 22.7522 45.5036 22.7882 45.5891 22.8415C45.6745 22.8949 45.7486 22.9645 45.8072 23.0464C45.8657 23.1283 45.9075 23.2209 45.9301 23.3189C45.9528 23.4169 45.9559 23.5184 45.9393 23.6177C45.9226 23.7169 45.8865 23.8119 45.8331 23.8972C45.7797 23.9825 45.71 24.0564 45.6279 24.1149C45.5459 24.1733 45.4531 24.215 45.3549 24.2376C44.5135 24.4337 43.6603 24.5757 42.8006 24.6625L42.7239 24.6587Z" fill="white"/>
</svg>