<svg width="67" height="29" viewBox="0 0 67 29" fill="none" xmlns="http://www.w3.org/2000/svg">
<path d="M66.0135 22.4555C65.916 22.456 65.8205 22.4272 65.739 22.3727C60.3838 18.7606 46.2515 19.8166 32.5864 20.82C21.955 21.6051 10.9478 22.4179 3.13995 21.2239C3.02204 21.2057 2.91456 21.145 2.83732 21.0528C2.76008 20.9606 2.71829 20.8432 2.71964 20.7222V1.28934C2.71888 1.21686 2.73361 1.14508 2.76282 1.07893C2.79202 1.01279 2.83501 0.953845 2.88882 0.906167C2.94263 0.858489 3.00598 0.823206 3.07451 0.802746C3.14304 0.782287 3.21514 0.777137 3.28582 0.78765C18.9857 3.14056 27.9037 2.00675 35.7709 1.00338C44.4837 -0.100335 52.0097 -1.05856 66.1371 2.52599C66.2056 2.54206 66.2698 2.57274 66.3257 2.616C66.3815 2.65925 66.4277 2.71408 66.461 2.77684C67.2991 4.48006 67.0024 6.53949 66.6242 9.14073C66.1643 12.3264 65.5907 16.2923 66.5055 21.861C66.5211 21.957 66.5088 22.0556 66.4702 22.1447C66.4316 22.2337 66.3682 22.3095 66.2879 22.3627C66.2076 22.4207 66.112 22.453 66.0135 22.4555ZM51.3372 18.8383C57.271 18.8383 62.2356 19.3726 65.3731 20.9956C64.6635 15.7956 65.2272 11.9 65.6476 9.00528C65.9937 6.59969 66.2508 4.83125 65.6698 3.43906C51.8688 -0.0300992 44.4614 0.913072 35.8945 2.00675C28.0594 3.01012 19.1909 4.12638 3.7086 1.86879V20.2882C11.3731 21.3719 22.1232 20.5692 32.5147 19.8166C39.1977 19.3149 45.71 18.8383 51.3372 18.8383Z" fill="white"/>
<path d="M11.2322 19.0641C10.5716 18.9997 9.92086 18.8557 9.29382 18.6352C8.69457 18.4244 8.1239 18.1378 7.59527 17.7823C7.05562 17.4225 6.55796 17.0017 6.11182 16.5281C6.6063 16.0264 6.85354 15.753 7.34802 15.2262C7.85887 15.7756 8.45944 16.2313 9.12322 16.5732C9.78311 16.9067 10.4981 17.1134 11.2322 17.1828C12.2533 17.2881 13.0469 17.1502 13.6107 16.7965C13.8792 16.636 14.0995 16.4043 14.2481 16.1263C14.3966 15.8483 14.4677 15.5346 14.4537 15.2187C14.4817 14.7538 14.329 14.2964 14.0285 13.9444C13.7125 13.6224 13.3288 13.3771 12.906 13.227C12.4437 13.0514 11.9344 12.8959 11.3855 12.7479C10.8366 12.5999 10.3199 12.4343 9.77841 12.2462C9.2476 12.0554 8.74766 11.7858 8.29496 11.446C7.8309 11.0971 7.45614 10.6403 7.20215 10.114C6.90292 9.46139 6.75976 8.74633 6.78431 8.02699C6.78431 6.6925 7.22193 5.74933 8.0947 5.15734C8.96746 4.56535 10.2012 4.37973 11.8033 4.52522C12.5661 4.59646 13.3152 4.77632 14.0285 5.05951C14.7849 5.36396 15.4969 5.77157 16.1449 6.27109C15.6949 6.8982 15.4674 7.21175 15.0175 7.83133C14.5272 7.43057 13.9868 7.0974 13.4104 6.8405C12.9002 6.6137 12.3578 6.4706 11.8033 6.41658C10.8391 6.32878 10.0899 6.43163 9.55589 6.7502C9.29484 6.904 9.08088 7.12816 8.93774 7.3978C8.7946 7.66745 8.72786 7.97206 8.74494 8.27783C8.7339 8.51505 8.76954 8.75211 8.84977 8.9752C8.93 9.19829 9.05321 9.40294 9.21223 9.5772C9.55698 9.9251 9.97318 10.1915 10.4311 10.3573C10.9256 10.5505 11.472 10.7336 12.0456 10.9017C12.5648 11.0522 13.0816 11.2177 13.6008 11.4033C14.1012 11.5744 14.5761 11.8141 15.0125 12.1157C15.4437 12.4181 15.7944 12.824 16.0336 13.2972C16.3107 13.893 16.4422 14.5478 16.4168 15.2061V15.2262C16.4168 16.5456 15.9619 17.5641 15.057 18.2489C14.1521 18.9337 12.8763 19.2422 11.2322 19.0641Z" fill="white"/>
<path d="M17.2896 6.83549V4.92406C20.615 4.94914 23.9379 4.77105 27.251 4.4901V6.40153C23.9379 6.68247 20.615 6.85806 17.2896 6.83549ZM21.2801 19.187V6.0353C22.0737 6.00519 22.4693 5.98764 23.258 5.94248V19.0942C22.4693 19.1394 22.0737 19.1569 21.2801 19.187Z" fill="white"/>
<path d="M26.9617 18.8358C28.7006 13.9042 30.4313 8.971 32.1537 4.03607L33.8449 3.8655C35.5805 8.46931 37.3112 13.0723 39.0369 17.6744C38.1815 17.7547 37.7538 17.7948 36.9008 17.8801C35.6135 14.1543 34.3163 10.4326 33.0092 6.71508C31.7071 10.6935 30.4024 14.6718 29.0954 18.6502C28.2424 18.7305 27.8147 18.7681 26.9617 18.8358ZM29.3574 15.4846V13.5731C31.8299 13.3424 34.3023 13.0714 36.787 12.8357V14.7471C34.3097 14.9954 31.8348 15.2513 29.3574 15.4846Z" fill="white"/>
<path d="M41.1954 17.4838V3.1506C41.9865 3.08538 42.3821 3.05277 43.1733 2.99758V17.3308C42.3821 17.386 41.9865 17.4186 41.1954 17.4838ZM42.0582 11.3557V9.44426C43.9867 9.29626 44.9485 9.23104 46.8745 9.1583C47.1389 9.15672 47.3998 9.09744 47.6395 8.98447C47.8793 8.8715 48.0923 8.70749 48.264 8.5036C48.6278 8.04354 48.8141 7.46486 48.7882 6.87562C48.8173 6.29284 48.6303 5.72013 48.264 5.27022C48.0911 5.07352 47.8757 4.92001 47.6347 4.82167C47.3937 4.72333 47.1335 4.68283 46.8745 4.70332C44.9485 4.77857 43.9867 4.84379 42.0582 4.99179V3.08036C43.9546 2.93487 44.9015 2.87216 46.7979 2.79691C47.5447 2.75004 48.2901 2.91047 48.9538 3.26097C49.5589 3.58567 50.0573 4.08262 50.3878 4.69078C50.7393 5.36095 50.9147 6.11168 50.8971 6.8706C50.911 7.62365 50.733 8.36758 50.3804 9.03037C50.0456 9.64293 49.549 10.1485 48.9464 10.4903C48.2876 10.8584 47.5499 11.0573 46.7979 11.0697C44.9015 11.1475 43.9546 11.2077 42.0582 11.3557ZM49.1368 17.0574C48.0654 14.9235 46.9874 12.7913 45.9029 10.6608C46.6916 10.4401 47.0871 10.3348 47.8808 10.1316C49.0906 12.4393 50.2922 14.7479 51.4856 17.0574C50.5461 17.0574 50.0763 17.0574 49.1368 17.0574Z" fill="white"/>
<path d="M52.215 4.6682V2.75928C55.5598 2.82407 58.8927 3.18329 62.1763 3.83289V5.74432C58.8928 5.09388 55.5599 4.73382 52.215 4.6682ZM56.2054 17.3082V4.14895C56.9991 4.21668 57.3947 4.25932 58.1834 4.35715V17.5089C57.3947 17.411 56.9991 17.3709 56.2054 17.3082Z" fill="white"/>
<path d="M0.494483 29C0.363338 29 0.237564 28.9471 0.144831 28.8531C0.0520972 28.759 0 28.6314 0 28.4983V1.15639C0 1.02334 0.0520972 0.89573 0.144831 0.801646C0.237564 0.707561 0.363338 0.654705 0.494483 0.654705C0.625628 0.654705 0.751402 0.707561 0.844136 0.801646C0.936869 0.89573 0.988966 1.02334 0.988966 1.15639V28.4983C0.988966 28.6314 0.936869 28.759 0.844136 28.8531C0.751402 28.9471 0.625628 29 0.494483 29Z" fill="white"/>
</svg>